<?xml version="1.0" standalone="no"?>
<!DOCTYPE svg PUBLIC "-//W3C//DTD SVG 20010904//EN"
 "http://www.w3.org/TR/2001/REC-SVG-20010904/DTD/svg10.dtd">
<svg version="1.0" xmlns="http://www.w3.org/2000/svg"
 width="200.000000pt" height="222.000000pt" viewBox="0 0 200.000000 222.000000"
 preserveAspectRatio="xMidYMid meet">
<metadata>
Created by potrace 1.16, written by Peter Selinger 2001-2019
</metadata>
<g transform="translate(0.000000,222.000000) scale(0.100000,-0.100000)"
fill="#e24827" stroke="none">
<path d="M790 2208 c-194 -55 -375 -161 -497 -290 -80 -86 -176 -244 -218
-360 -67 -182 -75 -234 -75 -451 0 -172 3 -203 25 -292 30 -116 77 -232 138
-340 119 -208 360 -391 599 -454 99 -27 363 -30 455 -6 189 49 383 166 502
304 128 149 197 285 252 496 27 102 29 123 29 294 0 101 -4 200 -9 220 -6 20
-17 65 -26 101 -29 118 -104 278 -181 386 -125 177 -317 312 -535 378 -78 24
-99 26 -255 25 -93 -1 -185 -5 -204 -11z m-210 -965 c79 -75 79 -191 0 -265
-36 -35 -44 -38 -94 -38 -48 0 -60 4 -91 31 -88 77 -85 206 5 283 26 21 42 26
86 26 50 0 59 -4 94 -37z m1030 -10 c66 -70 66 -171 1 -244 -35 -39 -42 -43
-97 -47 -54 -4 -63 -1 -92 23 -90 75 -94 205 -10 281 33 30 46 34 107 30 48
-3 58 -7 91 -43z"/>
</g>
</svg>
