<?xml version="1.0" standalone="no"?>
<!DOCTYPE svg PUBLIC "-//W3C//DTD SVG 20010904//EN"
 "http://www.w3.org/TR/2001/REC-SVG-20010904/DTD/svg10.dtd">
<svg version="1.0" xmlns="http://www.w3.org/2000/svg"
 width="182.000000pt" height="188.000000pt" viewBox="0 0 182.000000 188.000000"
 preserveAspectRatio="xMidYMid meet">
<metadata>
Created by potrace 1.16, written by Peter Selinger 2001-2019
</metadata>
<g transform="translate(0.000000,188.000000) scale(0.100000,-0.100000)"
fill="#e24827" stroke="none">
<path d="M755 1725 c-321 -73 -556 -313 -621 -634 -20 -101 -15 -271 11 -366
56 -211 204 -398 391 -497 150 -78 213 -93 394 -93 148 1 159 2 249 33 125 43
221 101 309 186 161 156 242 351 242 584 0 139 -23 233 -91 372 -45 91 -64
117 -143 196 -79 79 -105 98 -196 142 -58 29 -132 59 -165 68 -81 22 -301 28
-380 9z m-159 -698 c70 -64 55 -166 -32 -207 -36 -18 -49 -20 -83 -10 -43 11
-87 55 -97 97 -10 38 13 98 47 127 24 20 41 26 80 26 42 0 55 -5 85 -33z m804
17 c57 -34 77 -113 44 -175 -20 -40 -89 -72 -134 -62 -43 8 -96 62 -104 107
-19 102 102 184 194 130z"/>
</g>
</svg>
